<?xml version="1.0" encoding="utf-8"?>
<!-- Generator: Adobe Illustrator 26.0.1, SVG Export Plug-In . SVG Version: 6.00 Build 0)  -->
<svg version="1.1" id="圖層_1" xmlns="http://www.w3.org/2000/svg" xmlns:xlink="http://www.w3.org/1999/xlink" x="0px" y="0px"
	 viewBox="0 0 52 19" style="enable-background:new 0 0 52 19;" xml:space="preserve">
<style type="text/css">
	.st0{fill:#333333;}
</style>
<g>
	<path class="st0" d="M17.8,11.7c-0.8,3-2.7,4.5-5.7,4.5c-2.2,0-3.8-0.7-4.9-2.1C6.3,13,5.8,11.4,5.8,9.6c0-2.2,0.6-3.9,1.9-5.1
		c1.1-1.1,2.6-1.6,4.4-1.6c2.9,0,4.8,1.4,5.6,4.1l-3.3,0.8c-0.4-1.3-1.2-2-2.4-2c-1.8,0-2.7,1.3-2.7,3.8c0,2.5,0.9,3.8,2.6,3.8
		c1.3,0,2.1-0.9,2.5-2.6L17.8,11.7z"/>
	<path class="st0" d="M31.9,16h-3.7l-0.9-2.5h-4.5L22,16h-3.7l4.9-13h3.7L31.9,16z M26.3,10.8l-1.3-4l-1.3,4H26.3z"/>
	<path class="st0" d="M44.4,11.7c-0.8,3-2.7,4.5-5.7,4.5c-2.2,0-3.8-0.7-4.9-2.1c-0.9-1.2-1.4-2.7-1.4-4.6c0-2.2,0.6-3.9,1.9-5.1
		c1.1-1.1,2.6-1.6,4.4-1.6c2.9,0,4.8,1.4,5.6,4.1l-3.3,0.8c-0.5-1.3-1.2-2-2.4-2c-1.8,0-2.7,1.3-2.7,3.8c0,2.5,0.9,3.8,2.6,3.8
		c1.3,0,2.1-0.9,2.5-2.6L44.4,11.7z"/>
</g>
</svg>
