<?xml version="1.0" encoding="utf-8"?>
<!-- Generator: Adobe Illustrator 26.0.1, SVG Export Plug-In . SVG Version: 6.00 Build 0)  -->
<svg version="1.1" id="圖層_1" xmlns="http://www.w3.org/2000/svg" xmlns:xlink="http://www.w3.org/1999/xlink" x="0px" y="0px"
	 viewBox="0 0 52 19" style="enable-background:new 0 0 52 19;" xml:space="preserve">
<style type="text/css">
	.st0{fill:#FFFFFF;}
</style>
<g>
	<path class="st0" d="M16.4,12.4c-0.9,3.6-3.2,5.4-6.8,5.4c-2.6,0-4.5-0.8-5.9-2.5C2.6,13.8,2.1,12,2.1,9.8c0-2.6,0.8-4.7,2.3-6.1
		c1.4-1.3,3.1-1.9,5.3-1.9c3.5,0,5.7,1.6,6.7,4.9l-3.9,0.9C11.9,6,10.9,5.2,9.6,5.2c-2.1,0-3.2,1.5-3.2,4.5c0,3,1,4.6,3.1,4.6
		c1.6,0,2.6-1,3-3.1L16.4,12.4z"/>
	<path class="st0" d="M33.1,17.5h-4.5l-1-3h-5.3l-1,3h-4.4L22.8,2h4.4L33.1,17.5z M26.5,11.2L25,6.5l-1.6,4.8H26.5z"/>
	<path class="st0" d="M48.1,12.4c-0.9,3.6-3.2,5.4-6.8,5.4c-2.6,0-4.5-0.8-5.9-2.5c-1.1-1.4-1.7-3.2-1.7-5.5c0-2.6,0.8-4.7,2.3-6.1
		c1.4-1.3,3.1-1.9,5.3-1.9c3.5,0,5.7,1.6,6.7,4.9l-3.9,0.9c-0.5-1.6-1.5-2.4-2.8-2.4c-2.1,0-3.2,1.5-3.2,4.5c0,3,1,4.6,3.1,4.6
		c1.6,0,2.6-1,3-3.1L48.1,12.4z"/>
</g>
</svg>
